<?xml version="1.0" standalone="no"?>
<!DOCTYPE svg PUBLIC "-//W3C//DTD SVG 20010904//EN"
 "http://www.w3.org/TR/2001/REC-SVG-20010904/DTD/svg10.dtd">
<svg version="1.0" xmlns="http://www.w3.org/2000/svg"
 width="512.000000pt" height="512.000000pt" viewBox="0 0 512.000000 512.000000"
 preserveAspectRatio="xMidYMid meet">

<g transform="translate(0.000000,512.000000) scale(0.100000,-0.100000)"
fill="#000000" stroke="none">
<path d="M0 2560 l0 -2560 2560 0 2560 0 0 2560 0 2560 -2560 0 -2560 0 0
-2560z m2658 1682 c265 -81 461 -247 571 -483 64 -138 76 -192 76 -369 0 -180
-12 -235 -80 -377 -52 -107 -140 -221 -225 -292 -68 -57 -73 -50 53 -71 241
-39 481 -198 626 -412 49 -73 108 -204 133 -293 18 -67 22 -106 22 -240 -1
-146 -3 -168 -28 -250 -102 -336 -351 -579 -691 -676 l-80 -23 -877 -3 -878
-4 0 1761 0 1761 653 -3 c642 -4 653 -4 725 -26z"/>
</g>
</svg>
